<?xml version="1.0" encoding="utf-8"?><!-- Uploaded to: SVG Repo, www.svgrepo.com, Generator: SVG Repo Mixer Tools -->
<svg fill="#000000" width="800px" height="800px" viewBox="0 0 24 24" id="medical-insurance" data-name="Flat Color" xmlns="http://www.w3.org/2000/svg" class="icon flat-color"><path id="primary" d="M19,4a11.68,11.68,0,0,1-6.49-1.82,1,1,0,0,0-1.1,0A11.68,11.68,0,0,1,5,4,2,2,0,0,0,3,6V9.54a13.28,13.28,0,0,0,8.23,12.31,2.05,2.05,0,0,0,1.54,0A13.28,13.28,0,0,0,21,9.54V6A2,2,0,0,0,19,4Z" style="fill: rgb(0, 0, 0);"></path><path id="secondary" d="M12,16a1,1,0,0,1-1-1V13H9a1,1,0,0,1,0-2h2V9a1,1,0,0,1,2,0v2h2a1,1,0,0,1,0,2H13v2A1,1,0,0,1,12,16Z" style="fill: rgb(44, 169, 188);"></path></svg>