<?xml version="1.0" encoding="utf-8"?><!-- Uploaded to: SVG Repo, www.svgrepo.com, Generator: SVG Repo Mixer Tools -->
<svg fill="#000000" width="800px" height="800px" viewBox="0 0 24 24" id="home-alt-4" data-name="Flat Color" xmlns="http://www.w3.org/2000/svg" class="icon flat-color"><path id="secondary" d="M19,2H16a1,1,0,0,0-1,1V7a1,1,0,0,0,.29.71l3,3A1,1,0,0,0,19,11a.84.84,0,0,0,.38-.08A1,1,0,0,0,20,10V3A1,1,0,0,0,19,2Z" style="fill: rgb(44, 169, 188);"></path><path id="primary" d="M21.71,11.29l-9-9a1,1,0,0,0-1.42,0l-9,9a1,1,0,0,0-.21,1.09A1,1,0,0,0,3,13H4v7a2,2,0,0,0,2,2H18a2,2,0,0,0,2-2V13h1a1,1,0,0,0,.92-.62A1,1,0,0,0,21.71,11.29Z" style="fill: rgb(0, 0, 0);"></path></svg>