<?xml version="1.0" encoding="utf-8"?><!-- Uploaded to: SVG Repo, www.svgrepo.com, Generator: SVG Repo Mixer Tools -->
<svg width="800px" height="800px" viewBox="0 0 24 24" id="Flat_Color" data-name="Flat Color" xmlns="http://www.w3.org/2000/svg"><path id="secondary" d="M16.57,3.37A1,1,0,0,0,15.8,3H8.2a1,1,0,0,0-.77.37,1,1,0,0,0-.21.83L9,13.1V19a1,1,0,0,0,1,1h4a1,1,0,0,0,1-1V13.1l1.78-8.9A1,1,0,0,0,16.57,3.37Z" style="fill:#2ca9bc"></path><path id="primary" d="M11,12.8a1.36,1.36,0,0,1,0,.2v8a1,1,0,0,1-1,1H4a2,2,0,0,1-2-2V10A1,1,0,0,1,3,9,1,1,0,0,0,4,8V4A2,2,0,0,1,6,2H7.18a2,2,0,0,1,2,1.61ZM21,9a1,1,0,0,1-1-1V4a2,2,0,0,0-2-2H16.82a2,2,0,0,0-2,1.61L13,12.8a1.36,1.36,0,0,0,0,.2v8a1,1,0,0,0,1,1h6a2,2,0,0,0,2-2V10A1,1,0,0,0,21,9Z" style="fill:#000000"></path></svg>